<mxfile host="app.diagrams.net" modified="2024-12-08T10:25:47.851Z" agent="Mozilla/5.0 (Windows NT 10.0; Win64; x64) AppleWebKit/537.36 (KHTML, like Gecko) Chrome/131.0.0.0 Safari/537.36" version="24.5.3" etag="RnZSnuqF6iY_dmMKSrVk" type="github">
  <diagram name="Strona-1" id="WDG8RkEtVJZwJwcEdNAL">
    <mxGraphModel>
      <root>
        <mxCell id="0" />
        <mxCell id="1" parent="0" />
      </root>
    </mxGraphModel>
  </diagram>
</mxfile>
